<svg xmlns="http://www.w3.org/2000/svg" xmlns:xlink="http://www.w3.org/1999/xlink" width="200" zoomAndPan="magnify" viewBox="0 0 150 74.999997" height="100" preserveAspectRatio="xMidYMid meet" version="1.0"><defs><g/><clipPath id="745e8f4dfc"><path d="M 10.050781 19.386719 L 139.945312 19.386719 L 139.945312 20.167969 L 10.050781 20.167969 Z M 139.164062 20.167969 L 139.945312 20.167969 L 139.945312 54.816406 L 139.164062 54.816406 Z M 10.050781 20.167969 L 10.84375 20.167969 L 10.84375 54.816406 L 10.050781 54.816406 Z M 10.050781 54.816406 L 139.945312 54.816406 L 139.945312 55.613281 L 10.050781 55.613281 Z M 10.050781 54.816406 " clip-rule="nonzero"/></clipPath></defs><g clip-path="url(#745e8f4dfc)"><path fill="#ffffff" d="M 139.945312 19.386719 L 139.945312 55.546875 L 10.066406 55.546875 L 10.066406 19.386719 Z M 139.945312 19.386719 " fill-opacity="1" fill-rule="nonzero"/></g><g fill="#ffffff" fill-opacity="1"><g transform="translate(13.785903, 40.806567)"><g><path d="M 1 -9.96875 L 3.8125 -9.96875 L 3.8125 -2.234375 L 8.578125 -2.234375 L 8.578125 0 L 1 0 Z M 1 -9.96875 "/></g></g></g><g fill="#ffffff" fill-opacity="1"><g transform="translate(22.477539, 40.806567)"><g><path d="M 8.984375 -7.71875 L 8.984375 0 L 6.40625 0 L 6.40625 -0.828125 C 6.125 -0.515625 5.78125 -0.273438 5.375 -0.109375 C 4.976562 0.046875 4.5625 0.125 4.125 0.125 C 3.125 0.125 2.328125 -0.164062 1.734375 -0.75 C 1.140625 -1.34375 0.84375 -2.226562 0.84375 -3.40625 L 0.84375 -7.71875 L 3.546875 -7.71875 L 3.546875 -3.84375 C 3.546875 -3.269531 3.65625 -2.847656 3.875 -2.578125 C 4.09375 -2.316406 4.410156 -2.1875 4.828125 -2.1875 C 5.253906 -2.1875 5.601562 -2.332031 5.875 -2.625 C 6.144531 -2.925781 6.28125 -3.382812 6.28125 -4 L 6.28125 -7.71875 Z M 8.984375 -7.71875 "/></g></g></g><g fill="#ffffff" fill-opacity="1"><g transform="translate(32.337561, 40.806567)"><g><path d="M 4.8125 0.125 C 3.957031 0.125 3.191406 -0.0390625 2.515625 -0.375 C 1.847656 -0.71875 1.328125 -1.191406 0.953125 -1.796875 C 0.578125 -2.410156 0.390625 -3.101562 0.390625 -3.875 C 0.390625 -4.644531 0.578125 -5.332031 0.953125 -5.9375 C 1.328125 -6.539062 1.847656 -7.007812 2.515625 -7.34375 C 3.191406 -7.6875 3.957031 -7.859375 4.8125 -7.859375 C 5.6875 -7.859375 6.441406 -7.664062 7.078125 -7.28125 C 7.710938 -6.90625 8.164062 -6.390625 8.4375 -5.734375 L 6.34375 -4.65625 C 5.988281 -5.351562 5.472656 -5.703125 4.796875 -5.703125 C 4.316406 -5.703125 3.914062 -5.539062 3.59375 -5.21875 C 3.28125 -4.894531 3.125 -4.445312 3.125 -3.875 C 3.125 -3.289062 3.28125 -2.835938 3.59375 -2.515625 C 3.914062 -2.191406 4.316406 -2.03125 4.796875 -2.03125 C 5.472656 -2.03125 5.988281 -2.375 6.34375 -3.0625 L 8.4375 -2 C 8.164062 -1.332031 7.710938 -0.8125 7.078125 -0.4375 C 6.441406 -0.0625 5.6875 0.125 4.8125 0.125 Z M 4.8125 0.125 "/></g></g></g><g fill="#ffffff" fill-opacity="1"><g transform="translate(40.929458, 40.806567)"><g><path d="M 0.875 -7.71875 L 3.578125 -7.71875 L 3.578125 0 L 0.875 0 Z M 2.734375 -10.8125 L 5.453125 -10.8125 L 2.765625 -8.65625 L 0.828125 -8.65625 Z M 2.734375 -10.8125 "/></g></g></g><g fill="#ffffff" fill-opacity="1"><g transform="translate(45.389263, 40.806567)"><g><path d="M 4.15625 -7.859375 C 5.4375 -7.859375 6.414062 -7.5625 7.09375 -6.96875 C 7.769531 -6.382812 8.109375 -5.492188 8.109375 -4.296875 L 8.109375 0 L 5.59375 0 L 5.59375 -1 C 5.195312 -0.25 4.4375 0.125 3.3125 0.125 C 2.707031 0.125 2.1875 0.0195312 1.75 -0.1875 C 1.3125 -0.394531 0.976562 -0.675781 0.75 -1.03125 C 0.53125 -1.382812 0.421875 -1.789062 0.421875 -2.25 C 0.421875 -2.976562 0.703125 -3.546875 1.265625 -3.953125 C 1.828125 -4.359375 2.691406 -4.5625 3.859375 -4.5625 L 5.40625 -4.5625 C 5.351562 -5.375 4.804688 -5.78125 3.765625 -5.78125 C 3.390625 -5.78125 3.007812 -5.71875 2.625 -5.59375 C 2.25 -5.476562 1.929688 -5.316406 1.671875 -5.109375 L 0.75 -6.953125 C 1.175781 -7.234375 1.695312 -7.453125 2.3125 -7.609375 C 2.925781 -7.773438 3.539062 -7.859375 4.15625 -7.859375 Z M 4.0625 -1.578125 C 4.375 -1.578125 4.648438 -1.648438 4.890625 -1.796875 C 5.128906 -1.953125 5.300781 -2.179688 5.40625 -2.484375 L 5.40625 -3.15625 L 4.234375 -3.15625 C 3.441406 -3.15625 3.046875 -2.890625 3.046875 -2.359375 C 3.046875 -2.128906 3.132812 -1.941406 3.3125 -1.796875 C 3.5 -1.648438 3.75 -1.578125 4.0625 -1.578125 Z M 4.0625 -1.578125 "/></g></g></g><g fill="#ffffff" fill-opacity="1"><g transform="translate(54.337377, 40.806567)"><g/></g></g><g fill="#ffffff" fill-opacity="1"><g transform="translate(58.483714, 40.806567)"><g><path d="M 5.359375 -2.65625 L 3.8125 -2.65625 L 3.8125 0 L 1 0 L 1 -9.96875 L 5.5625 -9.96875 C 6.457031 -9.96875 7.238281 -9.816406 7.90625 -9.515625 C 8.570312 -9.222656 9.082031 -8.796875 9.4375 -8.234375 C 9.800781 -7.679688 9.984375 -7.03125 9.984375 -6.28125 C 9.984375 -5.5625 9.816406 -4.929688 9.484375 -4.390625 C 9.148438 -3.859375 8.664062 -3.441406 8.03125 -3.140625 L 10.1875 0 L 7.171875 0 Z M 7.140625 -6.28125 C 7.140625 -6.75 6.988281 -7.109375 6.6875 -7.359375 C 6.394531 -7.617188 5.960938 -7.75 5.390625 -7.75 L 3.8125 -7.75 L 3.8125 -4.828125 L 5.390625 -4.828125 C 5.960938 -4.828125 6.394531 -4.953125 6.6875 -5.203125 C 6.988281 -5.460938 7.140625 -5.820312 7.140625 -6.28125 Z M 7.140625 -6.28125 "/></g></g></g><g fill="#ffffff" fill-opacity="1"><g transform="translate(69.027667, 40.806567)"><g><path d="M 4.75 0.125 C 3.914062 0.125 3.164062 -0.0390625 2.5 -0.375 C 1.84375 -0.71875 1.328125 -1.191406 0.953125 -1.796875 C 0.578125 -2.410156 0.390625 -3.101562 0.390625 -3.875 C 0.390625 -4.632812 0.578125 -5.316406 0.953125 -5.921875 C 1.328125 -6.535156 1.84375 -7.007812 2.5 -7.34375 C 3.15625 -7.6875 3.90625 -7.859375 4.75 -7.859375 C 5.582031 -7.859375 6.332031 -7.6875 7 -7.34375 C 7.664062 -7.007812 8.179688 -6.539062 8.546875 -5.9375 C 8.921875 -5.332031 9.109375 -4.644531 9.109375 -3.875 C 9.109375 -3.101562 8.921875 -2.410156 8.546875 -1.796875 C 8.179688 -1.191406 7.664062 -0.71875 7 -0.375 C 6.332031 -0.0390625 5.582031 0.125 4.75 0.125 Z M 4.75 -2.03125 C 5.21875 -2.03125 5.601562 -2.191406 5.90625 -2.515625 C 6.21875 -2.835938 6.375 -3.289062 6.375 -3.875 C 6.375 -4.445312 6.21875 -4.894531 5.90625 -5.21875 C 5.601562 -5.539062 5.21875 -5.703125 4.75 -5.703125 C 4.269531 -5.703125 3.878906 -5.539062 3.578125 -5.21875 C 3.273438 -4.894531 3.125 -4.445312 3.125 -3.875 C 3.125 -3.289062 3.273438 -2.835938 3.578125 -2.515625 C 3.878906 -2.191406 4.269531 -2.03125 4.75 -2.03125 Z M 4.75 -2.03125 "/></g></g></g><g fill="#ffffff" fill-opacity="1"><g transform="translate(78.517221, 40.806567)"><g><path d="M 9.078125 -10.578125 L 9.078125 0 L 6.5 0 L 6.5 -0.765625 C 6 -0.171875 5.242188 0.125 4.234375 0.125 C 3.523438 0.125 2.878906 -0.0351562 2.296875 -0.359375 C 1.722656 -0.691406 1.265625 -1.160156 0.921875 -1.765625 C 0.585938 -2.367188 0.421875 -3.070312 0.421875 -3.875 C 0.421875 -4.675781 0.585938 -5.375 0.921875 -5.96875 C 1.265625 -6.570312 1.722656 -7.035156 2.296875 -7.359375 C 2.878906 -7.691406 3.523438 -7.859375 4.234375 -7.859375 C 5.148438 -7.859375 5.863281 -7.585938 6.375 -7.046875 L 6.375 -10.578125 Z M 4.796875 -2.03125 C 5.265625 -2.03125 5.648438 -2.191406 5.953125 -2.515625 C 6.253906 -2.835938 6.40625 -3.289062 6.40625 -3.875 C 6.40625 -4.445312 6.253906 -4.894531 5.953125 -5.21875 C 5.660156 -5.539062 5.273438 -5.703125 4.796875 -5.703125 C 4.328125 -5.703125 3.9375 -5.539062 3.625 -5.21875 C 3.320312 -4.894531 3.171875 -4.445312 3.171875 -3.875 C 3.171875 -3.289062 3.320312 -2.835938 3.625 -2.515625 C 3.9375 -2.191406 4.328125 -2.03125 4.796875 -2.03125 Z M 4.796875 -2.03125 "/></g></g></g><g fill="#ffffff" fill-opacity="1"><g transform="translate(88.462735, 40.806567)"><g><path d="M 3.453125 -6.796875 C 3.722656 -7.148438 4.078125 -7.414062 4.515625 -7.59375 C 4.960938 -7.769531 5.472656 -7.859375 6.046875 -7.859375 L 6.046875 -5.421875 C 5.796875 -5.441406 5.585938 -5.453125 5.421875 -5.453125 C 4.847656 -5.453125 4.394531 -5.296875 4.0625 -4.984375 C 3.738281 -4.671875 3.578125 -4.191406 3.578125 -3.546875 L 3.578125 0 L 0.875 0 L 0.875 -7.71875 L 3.453125 -7.71875 Z M 3.453125 -6.796875 "/></g></g></g><g fill="#ffffff" fill-opacity="1"><g transform="translate(94.77486, 40.806567)"><g><path d="M 0.875 -7.71875 L 3.578125 -7.71875 L 3.578125 0 L 0.875 0 Z M 2.21875 -8.578125 C 1.726562 -8.578125 1.332031 -8.710938 1.03125 -8.984375 C 0.726562 -9.265625 0.578125 -9.609375 0.578125 -10.015625 C 0.578125 -10.421875 0.726562 -10.757812 1.03125 -11.03125 C 1.332031 -11.3125 1.726562 -11.453125 2.21875 -11.453125 C 2.71875 -11.453125 3.117188 -11.320312 3.421875 -11.0625 C 3.722656 -10.800781 3.875 -10.46875 3.875 -10.0625 C 3.875 -9.632812 3.722656 -9.28125 3.421875 -9 C 3.117188 -8.71875 2.71875 -8.578125 2.21875 -8.578125 Z M 2.21875 -8.578125 "/></g></g></g><g fill="#ffffff" fill-opacity="1"><g transform="translate(99.234666, 40.806567)"><g><path d="M 9.171875 -7.71875 L 9.171875 -1.40625 C 9.171875 0.0195312 8.78125 1.09375 8 1.8125 C 7.226562 2.53125 6.109375 2.890625 4.640625 2.890625 C 3.878906 2.890625 3.164062 2.800781 2.5 2.625 C 1.84375 2.457031 1.28125 2.207031 0.8125 1.875 L 1.796875 -0.015625 C 2.109375 0.242188 2.503906 0.445312 2.984375 0.59375 C 3.460938 0.738281 3.9375 0.8125 4.40625 0.8125 C 5.113281 0.8125 5.632812 0.65625 5.96875 0.34375 C 6.300781 0.03125 6.46875 -0.429688 6.46875 -1.046875 L 6.46875 -1.3125 C 5.945312 -0.707031 5.179688 -0.40625 4.171875 -0.40625 C 3.492188 -0.40625 2.863281 -0.554688 2.28125 -0.859375 C 1.695312 -1.171875 1.234375 -1.609375 0.890625 -2.171875 C 0.554688 -2.734375 0.390625 -3.382812 0.390625 -4.125 C 0.390625 -4.863281 0.554688 -5.515625 0.890625 -6.078125 C 1.234375 -6.640625 1.695312 -7.078125 2.28125 -7.390625 C 2.863281 -7.703125 3.492188 -7.859375 4.171875 -7.859375 C 5.273438 -7.859375 6.082031 -7.5 6.59375 -6.78125 L 6.59375 -7.71875 Z M 4.8125 -2.546875 C 5.300781 -2.546875 5.703125 -2.691406 6.015625 -2.984375 C 6.335938 -3.285156 6.5 -3.664062 6.5 -4.125 C 6.5 -4.59375 6.34375 -4.972656 6.03125 -5.265625 C 5.71875 -5.554688 5.3125 -5.703125 4.8125 -5.703125 C 4.320312 -5.703125 3.914062 -5.554688 3.59375 -5.265625 C 3.28125 -4.972656 3.125 -4.59375 3.125 -4.125 C 3.125 -3.664062 3.285156 -3.285156 3.609375 -2.984375 C 3.929688 -2.691406 4.332031 -2.546875 4.8125 -2.546875 Z M 4.8125 -2.546875 "/></g></g></g><g fill="#ffffff" fill-opacity="1"><g transform="translate(109.279915, 40.806567)"><g><path d="M 8.984375 -7.71875 L 8.984375 0 L 6.40625 0 L 6.40625 -0.828125 C 6.125 -0.515625 5.78125 -0.273438 5.375 -0.109375 C 4.976562 0.046875 4.5625 0.125 4.125 0.125 C 3.125 0.125 2.328125 -0.164062 1.734375 -0.75 C 1.140625 -1.34375 0.84375 -2.226562 0.84375 -3.40625 L 0.84375 -7.71875 L 3.546875 -7.71875 L 3.546875 -3.84375 C 3.546875 -3.269531 3.65625 -2.847656 3.875 -2.578125 C 4.09375 -2.316406 4.410156 -2.1875 4.828125 -2.1875 C 5.253906 -2.1875 5.601562 -2.332031 5.875 -2.625 C 6.144531 -2.925781 6.28125 -3.382812 6.28125 -4 L 6.28125 -7.71875 Z M 8.984375 -7.71875 "/></g></g></g><g fill="#ffffff" fill-opacity="1"><g transform="translate(119.139934, 40.806567)"><g><path d="M 8.765625 -3.84375 C 8.765625 -3.820312 8.75 -3.597656 8.71875 -3.171875 L 3.109375 -3.171875 C 3.222656 -2.773438 3.441406 -2.46875 3.765625 -2.25 C 4.097656 -2.039062 4.507812 -1.9375 5 -1.9375 C 5.375 -1.9375 5.695312 -1.988281 5.96875 -2.09375 C 6.238281 -2.195312 6.507812 -2.367188 6.78125 -2.609375 L 8.203125 -1.125 C 7.453125 -0.289062 6.359375 0.125 4.921875 0.125 C 4.015625 0.125 3.21875 -0.0390625 2.53125 -0.375 C 1.851562 -0.71875 1.328125 -1.191406 0.953125 -1.796875 C 0.578125 -2.410156 0.390625 -3.101562 0.390625 -3.875 C 0.390625 -4.632812 0.570312 -5.316406 0.9375 -5.921875 C 1.300781 -6.523438 1.804688 -7 2.453125 -7.34375 C 3.097656 -7.6875 3.820312 -7.859375 4.625 -7.859375 C 5.394531 -7.859375 6.09375 -7.695312 6.71875 -7.375 C 7.351562 -7.050781 7.851562 -6.585938 8.21875 -5.984375 C 8.582031 -5.390625 8.765625 -4.675781 8.765625 -3.84375 Z M 4.640625 -5.921875 C 4.222656 -5.921875 3.875 -5.800781 3.59375 -5.5625 C 3.3125 -5.332031 3.132812 -5.015625 3.0625 -4.609375 L 6.234375 -4.609375 C 6.148438 -5.015625 5.96875 -5.332031 5.6875 -5.5625 C 5.40625 -5.800781 5.054688 -5.921875 4.640625 -5.921875 Z M 4.640625 -5.921875 "/></g></g></g><g fill="#ffffff" fill-opacity="1"><g transform="translate(128.287528, 40.806567)"><g><path d="M 7.59375 -2.03125 L 7.59375 0 L 0.46875 0 L 0.46875 -1.59375 L 4.046875 -5.71875 L 0.5625 -5.71875 L 0.5625 -7.71875 L 7.453125 -7.71875 L 7.453125 -6.140625 L 3.875 -2.03125 Z M 7.59375 -2.03125 "/></g></g></g></svg>